HIERARCHY
ROOT Joint1
{
	OFFSET 0.000000 0.000000 0.000000
	CHANNELS 6 Xposition Yposition Zposition Xrotation Yrotation Zrotation
	JOINT Joint2
	{
		OFFSET -0.000000 0.000000 1.456275
		CHANNELS 6 Xposition Yposition Zposition Xrotation Yrotation Zrotation
		JOINT Joint3
		{
			OFFSET -0.000000 0.000002 1.471446
			CHANNELS 6 Xposition Yposition Zposition Xrotation Yrotation Zrotation
			JOINT Joint4
			{
				OFFSET 0.625745 0.000000 0.917755
				CHANNELS 6 Xposition Yposition Zposition Xrotation Yrotation Zrotation
				JOINT Joint5
				{
					OFFSET -0.629534 0.000001 0.940221
					CHANNELS 6 Xposition Yposition Zposition Xrotation Yrotation Zrotation
					JOINT Joint6
					{
						OFFSET -0.000001 0.113772 1.960660
						CHANNELS 6 Xposition Yposition Zposition Xrotation Yrotation Zrotation
						JOINT Joint7
						{
							OFFSET -0.669733 -0.113771 0.388340
							CHANNELS 6 Xposition Yposition Zposition Xrotation Yrotation Zrotation
							End Site
							{
								OFFSET 0.005509 0.005509 0.438980
							}
						}
					}
				}
			}
		}
	}
}
MOTION
Frames: 9
Frame Time: 0.041667
0.000000 0.000000 0.000000 -0.000000 1.019410 -26.511475 -0.000000 0.000000 1.456275 -0.000001 -65.223327 -0.000001 -0.000000 0.000002 1.471446 -0.000003 -1.133464 -44.100971 0.625745 0.000000 0.917755 0.000007 102.449928 0.000002 -0.629534 0.000001 0.940221 0.000002 1.709735 -78.550673 -0.000001 0.113772 1.960660 -88.303882 140.904945 -0.000002 -0.669733 -0.113771 0.388340 0.309914 2.614069 48.620729 
0.000000 0.000000 0.000000 -0.000000 1.019410 -27.205142 -0.000000 0.000000 1.456275 0.000003 -65.752783 0.000002 -0.000000 0.000002 1.471445 -0.000003 -1.133461 -45.253931 0.625744 0.000000 0.917755 0.000006 101.597643 0.000008 -0.629534 0.000001 0.940221 -0.000002 1.709732 -80.605617 -0.000001 0.113772 1.960661 -88.303882 142.237460 0.000001 -0.669733 -0.113771 0.388341 0.311658 2.574041 46.362911 
0.000000 0.000000 0.000000 -0.000000 1.019410 -27.984298 -0.000000 -0.000000 1.456275 -0.000000 -66.347488 0.000005 -0.000001 0.000002 1.471446 -0.000002 -1.133464 -46.549006 0.625745 0.000000 0.917755 0.000011 100.640317 -0.000002 -0.629534 0.000001 0.940221 -0.000003 1.709735 -82.913825 -0.000001 0.113772 1.960660 -88.303882 143.734200 0.000002 -0.669734 -0.113771 0.388340 0.311734 2.529037 43.826923 
0.000000 0.000000 0.000000 -0.000000 1.019410 -28.734941 -0.000000 -0.000000 1.456275 0.000005 -66.920431 0.000003 -0.000000 0.000002 1.471445 -0.000003 -1.133466 -47.796673 0.625745 0.000000 0.917755 0.000009 99.718023 -0.000003 -0.629533 0.000001 0.940221 0.000000 1.709736 -85.137570 -0.000001 0.113772 1.960661 -88.303882 145.176163 -0.000000 -0.669733 -0.113771 0.388340 0.309920 2.485718 41.383816 
0.000000 0.000000 0.000000 -0.000000 1.019410 -29.457124 -0.000000 0.000000 1.456275 -0.000000 -67.471648 0.000001 -0.000000 0.000002 1.471446 -0.000003 -1.133462 -48.997042 0.625745 0.000001 0.917755 0.000012 98.830699 -0.000012 -0.629534 0.000002 0.940221 -0.000002 1.709735 -87.276977 -0.000001 0.113772 1.960660 -88.303882 146.563442 0.000002 -0.669733 -0.113771 0.388340 0.306433 2.444151 39.033425 
0.000000 0.000000 0.000000 -0.000000 1.019410 -30.179355 -0.000000 -0.000000 1.456275 -0.000003 -68.022913 0.000007 -0.000000 0.000002 1.471446 -0.000001 -1.133465 -50.197485 0.625745 0.000001 0.917755 0.000018 97.943314 -0.000001 -0.629533 0.000001 0.940221 -0.000001 1.709736 -89.416547 -0.000001 0.113772 1.960661 -88.303882 147.950831 0.000003 -0.669734 -0.113771 0.388340 0.301242 2.402759 36.682928 
0.000000 0.000000 0.000000 -0.000000 1.019410 -30.929945 -0.000000 -0.000000 1.456275 -0.000002 -68.595808 0.000001 -0.000001 0.000001 1.471446 -0.000001 -1.133467 -51.445077 0.625744 0.000001 0.917755 0.000014 97.021082 0.000006 -0.629533 0.000001 0.940221 0.000002 1.709736 -91.640122 -0.000001 0.113772 1.960660 -88.303882 149.392698 -0.000000 -0.669733 -0.113771 0.388341 0.294052 2.360004 34.240213 
0.000000 0.000000 0.000000 -0.000000 1.019410 -31.708846 -0.000000 0.000000 1.456275 0.000005 -69.190329 0.000005 -0.000000 0.000002 1.471446 -0.000003 -1.133462 -52.739719 0.625745 0.000000 0.917755 -0.000018 96.064070 -0.000001 -0.629533 0.000001 0.940221 0.000000 1.709737 -93.947585 -0.000001 0.113772 1.960661 -88.303882 150.888933 0.000004 -0.669733 -0.113771 0.388340 0.284669 2.316002 31.705431 
0.000000 0.000000 0.000000 -0.000000 1.019410 -32.402773 -0.000000 -0.000000 1.456275 -0.000005 -69.719976 0.000004 -0.000000 0.000001 1.471446 0.000001 -1.133465 -53.893112 0.625745 0.000001 0.917755 0.000007 95.211464 -0.000001 -0.629533 0.000001 0.940221 0.000001 1.709735 -96.003281 -0.000001 0.113771 1.960660 -88.303882 152.221940 0.000003 -0.669733 -0.113771 0.388340 0.274677 2.277184 29.447268 
